<svg width="53" height="48" viewBox="0 0 53 48" fill="none" xmlns="http://www.w3.org/2000/svg">
<rect x="33" width="20" height="21" fill="#FED097"/>
<path d="M44.6279 14H43.2656V4.96924L40.5337 5.97266V4.74219L44.4155 3.28467H44.6279V14Z" fill="#031622"/>
<g clip-path="url(#clip0_640_17625)">
<path fill-rule="evenodd" clip-rule="evenodd" d="M22.7371 31.0746C24.0571 31.0746 25.1871 32.1626 25.1871 33.5696C25.1871 34.9126 24.0571 36.0006 22.7371 36.0006C21.4181 36.0006 20.2871 34.9126 20.2871 33.5696C20.2871 32.1626 21.4181 31.0746 22.7371 31.0746ZM30.3371 31.0746C31.6571 31.0746 32.7871 32.1626 32.7871 33.5696C32.7871 34.9126 31.6571 36.0006 30.3371 36.0006C29.0181 36.0006 27.8871 34.9126 27.8871 33.5696C27.8871 32.1626 29.0181 31.0746 30.3371 31.0746ZM22.7371 32.3546C22.0471 32.3546 21.5441 32.8656 21.5441 33.5696C21.5441 34.2096 22.0461 34.7216 22.7371 34.7216C23.3651 34.7216 23.9311 34.2096 23.9311 33.5696C23.9311 32.8656 23.3651 32.3536 22.7371 32.3536V32.3546ZM30.3371 32.3546C29.7091 32.3546 29.1441 32.8656 29.1441 33.5696C29.1441 34.2096 29.7091 34.7216 30.3371 34.7216C30.9651 34.7216 31.5311 34.2096 31.5311 33.5696C31.5311 32.8656 30.9651 32.3536 30.3371 32.3536V32.3546ZM12.6871 12.0086L16.8961 12.9686C17.1471 13.0326 17.2731 13.1606 17.3361 13.4166L18.3401 18.2796H35.4881C35.8021 18.2796 36.0531 18.5996 35.9901 18.9836L33.6661 27.4276C33.6031 27.6836 33.4161 27.8116 33.1641 27.8116H20.2881L20.5381 29.2196H32.9751C33.6661 29.2196 33.6661 30.4996 32.9751 30.4996H19.9741C19.844 30.4955 19.7186 30.4497 19.6167 30.3688C19.5147 30.2879 19.4415 30.1763 19.4081 30.0506L16.2051 14.1206L12.4361 13.2906C11.6831 13.0976 11.9961 11.8806 12.6871 12.0096V12.0086ZM34.5461 19.5586H18.5921L19.9741 26.5316H32.6601L34.5451 19.5576L34.5461 19.5586Z" fill="white"/>
</g>
<defs>
<clipPath id="clip0_640_17625">
<rect width="24" height="24" fill="white" transform="translate(12 12)"/>
</clipPath>
</defs>
</svg>
